<svg width="93" height="68" xmlns="http://www.w3.org/2000/svg" xmlns:xlink="http://www.w3.org/1999/xlink" xml:space="preserve" overflow="hidden"><g><g><g><g><g><path d="M63.3904 27.505C63.3904 26.4496 63.3904 0 63.3904 0L50.345 0 50.345 5.42502 44.6033 5.42502 44.6033 0 38.4817 0 38.4817 5.42502 32.719 5.42502 32.719 0 26.344 0C26.344 0 26.344 26.9562 26.344 27.505 26.344 28.0539 26.0696 30.798 27.8006 34.8299 29.5315 38.8617 32.6768 41.1626 34.5766 42.3869 37.2785 44.1178 44.8566 45.891 44.8566 45.891 44.8566 45.891 52.4559 44.1389 55.1578 42.3869 57.0577 41.1626 60.1818 38.8617 61.9338 34.8299 63.4537 31.2836 63.3904 27.8428 63.3904 27.505ZM51.7804 26.1752C51.7804 33.5633 47.9808 36.7508 41.5214 36.7508 35.0621 36.7508 31.2624 33.5633 31.2624 26.1752L31.2624 18.3859C31.2624 10.9978 35.0621 7.81033 41.5214 7.81033 47.9808 7.81033 51.7804 10.9978 51.7804 18.3859L51.7804 26.1752Z" fill="#000000" fill-rule="nonzero" fill-opacity="1" transform="matrix(1.0046 0 0 1 0.026792 3.20793e-16)"/><path d="M41.4792 12.8343C43.7801 12.8343 45.6377 14.6919 45.6377 16.9716L45.6377 27.4206C45.6377 29.7215 43.7801 31.558 41.5003 31.558 39.1994 31.558 37.3418 29.7004 37.3418 27.4206L37.3418 16.9716C37.3207 14.6919 39.1783 12.8343 41.4792 12.8343Z" fill="#000000" fill-rule="evenodd" fill-opacity="1" transform="matrix(1.0046 0 0 1 0.026792 3.20793e-16)"/><path d="M8.63359 23.4521C8.92911 23.4099 9.20353 23.5788 9.24575 23.8954 9.28796 24.1909 9.05577 24.4653 8.78135 24.4865 8.48582 24.5287 8.23251 24.3176 8.1903 24.0432 8.16919 23.7687 8.35917 23.4943 8.63359 23.4521ZM8.95022 25.6263C9.24575 25.5841 9.52016 25.753 9.56238 26.0696 9.6046 26.3652 9.3724 26.6396 9.09798 26.6607 8.80246 26.7029 8.54915 26.4918 8.50693 26.2174 8.48582 25.9219 8.6758 25.6686 8.95022 25.6263ZM3.46188 22.5655C5.42502 22.2911 7.51481 23.2832 7.78923 25.2042 8.06364 27.1251 6.35381 28.666 4.36957 28.9616 2.40643 29.236 0.295526 28.2439 0.021109 26.3229-0.253308 24.4231 1.49874 22.8611 3.46188 22.5655ZM4.20069 27.695C6.50157 27.3573 7.76812 26.7873 7.55703 25.2464 7.34594 23.7054 5.95274 23.5154 3.65186 23.8532 1.35098 24.1909 0.084436 24.7609 0.295526 26.3018 0.506616 27.8217 1.89981 28.0328 4.20069 27.695Z" fill="#000000" fill-rule="nonzero" fill-opacity="1" transform="matrix(1.0046 0 0 1 0.026792 3.20793e-16)"/><path d="M1.161 32.2757 1.4143 32.1912 1.68872 33.0145 8.33806 30.798 8.06364 29.9748 8.31695 29.8904 9.3724 33.0356C10.0479 35.0832 9.07687 35.7587 8.59137 35.9064 7.19817 36.3708 6.52268 35.2309 6.1005 34.2599L6.07939 34.2599C6.18494 35.5898 6.01607 36.5819 4.28513 37.0463 3.7574 37.1941 3.29301 37.4052 3.2719 37.6796 3.20857 37.9329 3.56742 38.2284 3.82073 38.4184L3.65186 38.6084C3.25079 38.4606 2.95526 38.1018 2.84972 37.8273 2.59641 37.0674 2.84972 36.5186 3.31411 36.202 3.48299 36.0753 4.32735 35.7376 4.93951 35.442 5.40391 35.2309 6.18494 34.8721 5.74165 33.5211L5.53056 32.8878 2.04757 34.0488 2.32199 34.8932 2.06868 34.9776 1.161 32.2757ZM5.76276 32.8245 5.95274 33.3945C6.35381 34.5766 6.69156 35.2732 8.14808 34.7877 9.18242 34.4499 9.35129 33.88 9.01355 32.8667L8.6758 31.8535 5.76276 32.8245Z" fill="#000000" fill-rule="nonzero" fill-opacity="1" transform="matrix(1.0046 0 0 1 0.026792 3.20793e-16)"/><path d="M4.41178 41.0359 4.64398 40.9093 5.1506 41.7747 11.2089 38.2495 10.7023 37.3841 10.9345 37.2574 13.8053 42.1969 12.2221 43.1257 12.0955 42.9146C13.1509 42.0703 13.0031 41.3526 12.4965 40.466L11.7577 39.1994 8.95022 40.8248C9.52016 41.817 9.71014 42.1125 10.8289 41.6481L10.9556 41.8592 8.48582 43.2946 8.35917 43.0835C9.3724 42.4291 9.24575 41.9436 8.69691 40.9726L5.69943 42.7246 6.37492 43.9067C7.11374 45.1944 7.53592 45.5321 9.11909 44.9411L9.26686 45.1944 7.36704 46.1232 4.41178 41.0359Z" fill="#000000" fill-rule="nonzero" fill-opacity="1" transform="matrix(1.0046 0 0 1 0.026792 3.20793e-16)"/><path d="M9.18242 48.6774 9.3724 48.5085 9.94234 49.1629 15.1985 44.54 14.6285 43.8856 14.8185 43.7168 16.7394 45.9121C18.196 47.5797 17.6682 48.6352 17.1405 49.0996 16.2962 49.8384 15.2618 49.4162 14.5652 48.804L14.5441 48.8251C15.4096 50.0706 15.0718 51.2316 14.5652 51.696 13.9319 52.2659 12.6865 52.7092 11.0822 50.8727L9.18242 48.6774ZM10.6812 49.965 11.3144 50.6827C12.1799 51.6537 12.7076 51.6115 13.7842 50.6827 14.8607 49.7328 14.6074 49.0362 13.7209 48.023L13.362 47.6219 10.6812 49.965ZM13.5309 47.4531 14.1641 48.1708C14.903 49.0151 15.4518 48.9518 16.3384 48.1497 17.1194 47.4531 17.2461 46.8409 16.4861 45.9965L15.9162 45.3422 13.5309 47.4531Z" fill="#000000" fill-rule="nonzero" fill-opacity="1" transform="matrix(1.0046 0 0 1 0.026792 3.20793e-16)"/><path d="M15.2618 55.2001 15.4096 54.989 16.1062 55.5167 20.3702 49.965 19.6736 49.4373 19.8214 49.2262 22.46 51.2527C24.1698 52.5614 23.7476 53.6591 23.431 54.0602 22.5233 55.2212 21.3412 54.6723 20.4335 54.0813L20.4124 54.1024C21.2357 55.1578 21.6367 56.0655 20.4757 57.4165 20.1169 57.8176 19.8636 58.2609 19.9902 58.5142 20.0747 58.7675 20.5391 58.8097 20.8557 58.8308L20.8135 59.0841C20.3913 59.1897 19.948 59.0419 19.7158 58.873 19.0825 58.3875 18.977 57.7754 19.1881 57.2687 19.2725 57.0788 19.7791 56.3188 20.1169 55.7278 20.3913 55.2845 20.8135 54.5457 19.6947 53.6802L19.167 53.258 16.9716 56.1711 17.6682 56.7199 17.5205 56.931 15.2618 55.2001ZM19.3781 53.0681 19.8636 53.448C20.8346 54.2079 21.5312 54.5879 22.46 53.3847 23.1355 52.5192 22.9666 51.9704 22.1011 51.316L21.2568 50.6616 19.3781 53.0681Z" fill="#000000" fill-rule="nonzero" fill-opacity="1" transform="matrix(1.0046 0 0 1 0.026792 3.20793e-16)"/><path d="M24.6764 57.4587C25.4997 55.6434 27.4839 54.4401 29.236 55.2423 30.988 56.0444 31.368 58.3242 30.5447 60.1396 29.7215 61.9549 27.7372 63.1793 25.9641 62.3771 24.212 61.5961 23.8532 59.2741 24.6764 57.4587ZM29.3837 59.633C30.3548 57.5221 30.5447 56.1289 29.1304 55.4956 27.7161 54.8412 26.8084 55.8967 25.8374 58.0287 24.8664 60.1396 24.6764 61.5328 26.0907 62.166 27.505 62.7993 28.4127 61.7227 29.3837 59.633Z" fill="#000000" fill-rule="nonzero" fill-opacity="1" transform="matrix(1.0046 0 0 1 0.026792 3.20793e-16)"/><path d="M39.3683 58.7464 39.3261 58.9997 38.4606 58.8519 37.5318 64.3614C37.4896 64.6147 37.4896 65.839 38.8406 66.0712 40.5082 66.3456 40.9093 65.248 41.1415 63.8336L41.8803 59.4219 41.0359 59.2741 41.0781 59.0208 43.0835 59.3585 43.0413 59.6118 42.1969 59.4641 41.3948 64.2136C41.0992 65.9657 40.1916 66.6623 38.5239 66.3878 37.0885 66.1556 36.3075 65.2057 36.5186 63.9603L37.4052 58.6619 36.5608 58.5142 36.603 58.2609 39.3683 58.7464Z" fill="#000000" fill-rule="nonzero" fill-opacity="1" transform="matrix(1.0046 0 0 1 0.026792 3.20793e-16)"/><path d="M45.4688 59.6752 44.5822 59.7174 44.5611 59.4641 46.7565 59.3796 50.1761 64.678 50.1972 64.678 49.9861 59.5063 49.0996 59.5485 49.0784 59.2952 51.1682 59.2108 51.1894 59.4641 50.3239 59.5063 50.6405 66.9156 50.345 66.9367 45.8277 59.9285 45.8066 59.9285 46.1021 66.7045 46.9675 66.6623 46.9887 66.9156 44.8989 67 44.8778 66.7467 45.7643 66.7045 45.4688 59.6752Z" fill="#000000" fill-rule="nonzero" fill-opacity="1" transform="matrix(1.0046 0 0 1 0.026792 3.20793e-16)"/><path d="M57.1421 65.5857 54.1868 66.1979 54.1446 65.9445 55.0945 65.7546 53.6802 58.8941 52.7303 59.0841 52.6881 58.8308 55.6434 58.2186 55.6856 58.472 54.7357 58.6619 56.15 65.5224 57.0999 65.3324 57.1421 65.5857Z" fill="#000000" fill-rule="nonzero" fill-opacity="1" transform="matrix(1.0046 0 0 1 0.026792 3.20793e-16)"/><path d="M56.8888 58.0076 59.5485 56.9943 59.633 57.2265 58.8097 57.5432 62.5882 62.1027 62.6093 62.1027 62.2927 56.2133 61.3428 56.5721 61.2584 56.3399 63.2637 55.58 63.3481 55.8122 62.6093 56.1077 63.0315 63.897 62.7782 64.0025 57.7754 57.9653 57.0154 58.2609 56.8888 58.0076Z" fill="#000000" fill-rule="nonzero" fill-opacity="1" transform="matrix(1.0046 0 0 1 0.026792 3.20793e-16)"/><path d="M68.2454 61.4483 68.1188 61.2372 68.9631 60.7095 65.248 54.7779 64.4036 55.3056 64.2558 55.0945 69.0898 52.0759 70.0608 53.638 69.8497 53.7646C68.9842 52.7303 68.2665 52.8992 67.4011 53.448L66.1556 54.229 67.8655 56.9732C68.8365 56.3611 69.132 56.1711 68.6254 55.0734L68.8365 54.9468 70.3563 57.3532 70.1452 57.4798C69.4486 56.4877 68.9631 56.6144 68.0132 57.2054L69.8497 60.1607 71.0107 59.443C72.2773 58.6619 72.5939 58.2398 71.9606 56.6777L72.2139 56.5299 73.206 58.3875 68.2454 61.4483Z" fill="#000000" fill-rule="nonzero" fill-opacity="1" transform="matrix(1.0046 0 0 1 0.026792 3.20793e-16)"/><path d="M75.8025 56.4244 75.6336 56.2344 76.2669 55.6434 71.4751 50.5561 70.8418 51.1471 70.673 50.9571 73.0794 48.6774C74.6415 47.1997 75.6758 47.7908 76.0135 48.1708 77.0268 49.2473 76.2669 50.345 75.5703 51.126L75.5914 51.1471C76.7524 50.4928 77.7234 50.2394 78.8633 51.5904 79.201 52.0126 79.6021 52.3292 79.8554 52.2448 80.1087 52.2026 80.2354 51.7593 80.2987 51.4427L80.5309 51.506C80.5731 51.9493 80.362 52.3503 80.1509 52.5614 79.581 53.1103 78.9477 53.1103 78.4833 52.8359 78.2933 52.7303 77.6389 52.1181 77.1112 51.6749 76.7101 51.3371 76.0558 50.7883 75.0214 51.7593L74.5359 52.2237 77.0479 54.8834 77.7023 54.2713 77.8711 54.4612 75.8025 56.4244ZM74.3459 52.0337 74.7892 51.6115C75.6969 50.7672 76.1824 50.155 75.127 49.0362 74.3882 48.2341 73.7971 48.3185 73.0161 49.0573L72.235 49.7962 74.3459 52.0337Z" fill="#000000" fill-rule="nonzero" fill-opacity="1" transform="matrix(1.0046 0 0 1 0.026792 3.20793e-16)"/><path d="M82.3885 49.7962 82.304 49.9228 80.742 48.7829 80.8686 48.6141C81.9452 48.8674 82.9584 48.8251 83.6128 47.9386 84.1827 47.1575 84.2672 46.0599 83.465 45.4899 82.9373 45.0888 82.5996 45.0466 81.7974 45.5321 81.4175 45.7643 79.9187 46.8409 79.7287 46.9042 79.011 47.1786 78.3144 46.9887 77.8078 46.6087 77.4278 46.3343 77.1534 45.9543 77.0057 45.4477 76.8579 44.92 76.879 44.2445 77.4067 43.569 77.7867 43.0413 78.42 42.7669 78.6733 42.6824L78.6733 42.1547 78.7577 42.028 80.172 43.0624 80.0454 43.2524C79.0955 42.9991 78.1667 42.9991 77.5756 43.8012 77.1112 44.4134 77.0901 45.4266 77.7656 45.9332 79.2643 47.052 80.8264 42.8935 83.2962 44.7089 84.5416 45.6166 84.6894 46.9464 83.8028 48.1285 83.3595 48.7407 82.9162 49.0362 82.2829 49.1418L82.3885 49.7962Z" fill="#000000" fill-rule="nonzero" fill-opacity="1" transform="matrix(1.0046 0 0 1 0.026792 3.20793e-16)"/><path d="M88.0035 41.0359 86.5681 43.6957 86.3359 43.569 86.8003 42.7246 80.6364 39.4105 80.172 40.2549 79.9398 40.1282 81.3752 37.4685 81.6074 37.5951 81.143 38.4395 87.3069 41.7536 87.7713 40.9093 88.0035 41.0359Z" fill="#000000" fill-rule="nonzero" fill-opacity="1" transform="matrix(1.0046 0 0 1 0.026792 3.20793e-16)"/><path d="M89.6922 37.2152 89.4389 37.1307 89.7555 36.2442 83.1695 33.9011 82.9162 34.6188C82.5573 35.632 83.275 35.9909 84.2461 36.5819L84.1405 36.8563 82.1352 36.012 84.0772 30.5658 86.1459 31.2202 86.0403 31.4946C84.9849 31.2413 84.0772 31.3258 83.6761 32.4234L83.5072 32.8878 90.0933 35.2309 90.4099 34.3444 90.6632 34.4288 89.6922 37.2152Z" fill="#000000" fill-rule="nonzero" fill-opacity="1" transform="matrix(1.0046 0 0 1 0.026792 3.20793e-16)"/><path d="M85.4071 23.9798 85.2382 25.0775 84.9849 25.0353 85.3226 22.7344 85.5759 22.7766 85.4493 23.6632 88.9112 26.133 92.1197 26.5974 92.2675 25.6052 92.5208 25.6474 92.0775 28.7083 91.8242 28.666 91.972 27.695 88.7634 27.2306 84.7105 28.8349 84.5838 29.6582 84.3305 29.6159 84.7738 26.5974 85.0271 26.6396 84.8793 27.6106 88.489 26.2174 85.4071 23.9798Z" fill="#000000" fill-rule="nonzero" fill-opacity="1" transform="matrix(1.0046 0 0 1 0.026792 3.20793e-16)"/></g></g></g></g></g></svg>